<?xml version="1.0" encoding="UTF-8" standalone="no"?>
<!-- Created with Inkscape (http://www.inkscape.org/) -->

<svg
   width="500"
   height="500"
   viewBox="0 0 132.29166 132.29167"
   version="1.1"
   id="svg1"
   inkscape:version="1.3.1 (91b66b0783, 2023-11-16)"
   sodipodi:docname="AddImageStimulus.svg"
   inkscape:export-filename="AddImageStimulus.png"
   inkscape:export-xdpi="96"
   inkscape:export-ydpi="96"
   xmlns:inkscape="http://www.inkscape.org/namespaces/inkscape"
   xmlns:sodipodi="http://sodipodi.sourceforge.net/DTD/sodipodi-0.dtd"
   xmlns:xlink="http://www.w3.org/1999/xlink"
   xmlns="http://www.w3.org/2000/svg"
   xmlns:svg="http://www.w3.org/2000/svg">
  <sodipodi:namedview
     id="namedview1"
     pagecolor="#ffffff"
     bordercolor="#000000"
     borderopacity="0.25"
     inkscape:showpageshadow="2"
     inkscape:pageopacity="0.0"
     inkscape:pagecheckerboard="0"
     inkscape:deskcolor="#d1d1d1"
     inkscape:document-units="mm"
     showgrid="true"
     inkscape:zoom="1.4485269"
     inkscape:cx="361.74682"
     inkscape:cy="209.52321"
     inkscape:window-width="1920"
     inkscape:window-height="1009"
     inkscape:window-x="-8"
     inkscape:window-y="-8"
     inkscape:window-maximized="1"
     inkscape:current-layer="layer1">
    <inkscape:grid
       id="grid1"
       units="px"
       originx="0"
       originy="0"
       spacingx="2.6458333"
       spacingy="2.6458333"
       empcolor="#0099e5"
       empopacity="0.30196078"
       color="#5e7987"
       opacity="0.14901961"
       empspacing="5"
       dotted="false"
       gridanglex="30"
       gridanglez="30"
       visible="true" />
  </sodipodi:namedview>
  <defs
     id="defs1">
    <pattern
       inkscape:collect="always"
       xlink:href="#ap108"
       preserveAspectRatio="xMidYMid"
       id="pattern11"
       patternTransform="matrix(0.2,0,0,0.2,1180.0034,543.26185)" />
    <pattern
       patternUnits="userSpaceOnUse"
       preserveAspectRatio="xMidYMid"
       width="377.87535"
       height="195.94893"
       patternTransform="translate(1180.0034,543.26185) scale(0.2)"
       id="ap108"
       inkscape:collect="always"
       inkscape:isstock="true"
       inkscape:label="ap108">
      <path
         id="path19386"
         style="opacity:1;fill:#f32500;fill-opacity:1;stroke:none;stroke-width:9.00491;stroke-linecap:round;stroke-dasharray:none;stroke-opacity:1;paint-order:markers fill stroke"
         d="m 0,0 v 2.2140472 c 4.4590488,0 7.9915843,3.5324221 7.9915843,7.9914708 0,2.334803 -0.9761386,4.406249 -2.5390111,5.854526 C 3.6481134,15.954595 1.8305764,15.900548 0,15.900548 v 8.514746 C 36.117581,24.419074 66.833877,47.291376 78.527206,79.30938 54.306557,83.503332 33.283767,97.075238 19.309682,116.13857 13.081134,114.80678 6.6222614,114.1008 0,114.1008 v 8.51463 c 36.056731,0 66.729902,22.75393 78.466545,54.70681 -3.477317,0.60461 -6.887698,1.39937 -10.221997,2.37937 C 57.609298,152.38658 31.038161,132.98071 0,132.98071 v 8.53126 c 27.393184,0 50.75588,16.9598 60.197934,40.96536 -3.244725,1.28874 -6.402104,2.75282 -9.456529,4.3841 C 42.931351,166.43516 23.134299,151.88289 0,151.88277 v 8.53126 c 20.113058,1.2e-4 37.142249,12.8868 43.306129,30.87549 -2.201953,1.45354 -4.315956,3.02982 -6.383244,4.65941 H 52.10177 c 12.450369,-7.22729 26.915339,-11.37861 42.369865,-11.37861 15.446585,0 29.897275,4.15702 42.342345,11.37861 h 15.22844 c -11.86855,-9.36877 -26.05051,-15.9292 -41.56018,-18.62669 11.7495,-31.91486 42.40982,-54.70125 78.45544,-54.70125 36.03877,0 66.69516,22.77985 78.45002,54.68474 -15.54841,2.68758 -29.76752,9.25428 -41.66487,18.6432 h 15.234 c 12.44454,-7.22249 26.89508,-11.37861 42.34231,-11.37861 15.45755,0 29.92252,4.14897 42.37534,11.37861 h 15.16789 c -2.03823,-1.60774 -4.11961,-3.16249 -6.28966,-4.59886 6.14672,-18.01973 23.18759,-30.93592 43.32264,-30.93604 v -8.53126 c -23.15323,1.2e-4 -42.96673,14.57533 -50.7634,35.02821 -3.05427,-1.63574 -6.20587,-3.10772 -9.45101,-4.4005 9.43332,-24.02389 32.80834,-40.99851 60.21441,-40.99851 v -8.53126 c -31.04848,0 -57.62748,19.41887 -68.25547,46.74841 -3.33211,-0.98321 -6.74094,-1.7822 -10.21659,-2.39036 11.73229,-31.96154 42.40932,-54.72333 78.47206,-54.72333 v -8.51463 c -6.65541,0 -13.1458,0.7149 -19.40322,2.0598 -13.95001,-19.048474 -34.93864,-32.618036 -59.12391,-36.834704 11.69299,-32.019704 42.4091,-54.90599 78.52709,-54.910602 v -8.514746 c -1.82985,2.27e-4 -3.64871,0.05405 -5.45246,0.159496 -1.56283,-1.448277 -2.53901,-3.519723 -2.53901,-5.854526 0,-4.4590487 3.53246,-7.9914708 7.99147,-7.9914708 V 0 h -12.92625 c -2.23211,2.8162394 -3.57996,6.3609071 -3.57996,10.205518 0,2.460888 0.55128,4.806576 1.53108,6.912 -1.53305,0.250961 -3.05348,0.538885 -4.56022,0.86468 C 356.075,14.904869 353.62624,11.971389 351.00934,9.1977071 351.12915,5.9428157 351.84586,2.8539591 353.01411,0 h -8.9994 c -0.20258,0.66856063 -0.4097,1.3369323 -0.57278,2.0212535 C 342.61841,1.3227591 341.75622,0.66984567 340.90843,0 h -15.16784 c 9.09403,5.2938331 17.12031,12.219099 23.64952,20.400038 -3.84964,1.251968 -7.593,2.745335 -11.20241,4.472239 C 324.99258,9.8618079 305.76639,0.29627717 284.31802,0 h -2.03229 C 260.86598,0.2944252 241.65906,9.8317228 228.46012,24.806173 224.84893,23.085694 221.10297,21.595729 217.2522,20.350488 223.77449,12.189657 231.78663,5.2834016 240.86321,0 h -15.19544 c -6.55661,5.1851339 -12.42346,11.208076 -17.38742,17.943723 -6.23879,-1.336479 -12.70873,-2.043326 -19.34267,-2.043326 -6.66902,0 -13.17253,0.715049 -19.44171,2.065285 C 164.52986,11.221191 158.65984,5.1908031 152.09752,0 h -15.18995 c 9.08643,5.288315 17.10621,12.201298 23.63308,20.372523 -3.84983,1.24902 -7.59254,2.748132 -11.20245,4.472126 C 136.14361,9.8486929 116.92724,0.29586142 95.49052,0 H 93.45275 C 72.019654,0.29593701 52.80378,9.8474079 39.60514,24.839244 35.994369,23.115969 32.25891,21.620787 28.408139,20.372523 34.934249,12.2016 42.955654,5.2884283 52.041222,0 H 36.862375 C 36.04543,0.64595906 35.211553,1.2721134 34.416907,1.944189 34.258167,1.2850016 34.055584,0.64437165 33.860674,0 h -9.004876 c 1.155515,2.8222866 1.873437,5.8721386 2.004737,9.0874961 -2.651452,2.8004409 -5.132409,5.7612849 -7.424239,8.8727429 -1.47549,-0.31748 -2.965984,-0.597052 -4.466608,-0.842721 0.981166,-2.106595 1.536643,-4.449298 1.536643,-6.912 C 16.506331,6.3609071 15.158438,2.8162394 12.926362,0 Z m 94.471635,8.591811 c 18.609415,0 35.351545,7.853443 47.111845,20.427628 -3.54119,2.129348 -6.92814,4.489815 -10.13945,7.060687 -9.47822,-9.471912 -22.54949,-15.349606 -36.972395,-15.349606 -14.415799,0 -27.485594,5.869493 -36.966917,15.333089 C 54.292762,33.493153 50.907402,31.136844 47.365342,29.008479 59.12931,16.440113 75.867288,8.591811 94.471635,8.591811 Z m 188.827505,0 c 18.62619,0 35.38295,7.86652 47.14488,20.460661 -3.54131,2.132221 -6.92871,4.492082 -10.13945,7.066243 -9.48106,-9.492926 -22.56435,-15.388195 -37.00543,-15.388195 -14.39766,0 -27.45003,5.857323 -36.92841,15.300056 -3.21501,-2.569398 -6.60551,-4.92805 -10.15041,-7.055168 11.7625,-12.549997 28.48993,-20.383597 47.07882,-20.383597 z m -94.36146,15.823332 c 36.12147,0 66.84306,22.833865 78.53264,54.877569 -3.47712,0.597694 -6.89306,1.384138 -10.22755,2.357178 -10.59621,-27.393903 -37.2102,-46.869468 -68.30509,-46.869468 -31.10506,0 -57.72703,19.48868 -68.31602,46.896983 -3.33396,-0.976781 -6.74502,-1.76674 -10.22215,-2.368177 11.68516,-32.052208 42.4108,-54.894085 78.53817,-54.894085 z m -94.466045,4.92926 c 11.893605,0 22.655015,4.724825 30.528565,12.397606 -2.64412,2.551371 -5.13214,5.263257 -7.45727,8.112643 -5.93152,-5.895609 -14.08169,-9.561146 -23.071295,-9.561146 -8.980422,0 -17.126174,3.659565 -23.060221,9.544592 -2.325127,-2.850293 -4.818331,-5.55549 -7.462828,-8.107163 7.876346,-7.665978 18.635149,-12.386532 30.523049,-12.386532 z m 188.827505,0 c 11.91605,0 22.69515,4.743156 30.57252,12.441638 -2.64272,2.553902 -5.13407,5.260271 -7.4572,8.112605 -5.93522,-5.921273 -14.10334,-9.60514 -23.11532,-9.60514 -8.95729,0 -17.08056,3.642103 -23.01071,9.500598 -2.32796,-2.848214 -4.82132,-5.557304 -7.46827,-8.1072 7.87249,-7.641562 18.61258,-12.342501 30.47898,-12.342501 z m -94.36146,13.967169 c 27.4439,0 50.84511,17.021291 60.25296,41.097637 -3.24756,1.282659 -6.40433,2.741821 -9.46201,4.367471 -7.77887,-20.487949 -27.61232,-35.094198 -50.79095,-35.094274 -23.19497,7.6e-5 -43.04024,14.627225 -50.80744,35.138419 -3.05677,-1.629581 -6.2149,-3.092069 -9.46208,-4.378582 9.39908,-24.094564 32.81284,-41.130671 60.26952,-41.130671 z m -94.466045,5.601222 c 7.121655,0 13.487245,3.054765 17.899695,7.919962 -2.18049,3.25285 -4.16176,6.650683 -5.92075,10.178003 -2.23956,-4.366526 -6.776463,-7.396649 -11.978945,-7.396649 -5.196322,0 -9.737235,3.022035 -11.984504,7.380133 -1.757481,-3.527849 -3.73047,-6.925569 -5.90967,-10.178041 4.416265,-4.855786 10.780498,-7.903408 17.894174,-7.903408 z m 188.827505,0 c 7.14984,0 13.53494,3.081713 17.9492,7.980472 -2.18294,3.264605 -4.16228,6.67544 -5.92067,10.216592 -2.22138,-4.419704 -6.78682,-7.495748 -12.02853,-7.495748 -5.15622,0 -9.66444,2.977172 -11.92944,7.280996 -1.75718,-3.511635 -3.7344,-6.895068 -5.90963,-10.133972 4.41411,-4.822375 10.75344,-7.84834 17.83907,-7.84834 z m -94.36146,13.300875 c 20.15191,1.14e-4 37.20548,12.93687 43.3392,30.980145 -3.09922,2.037657 -6.07261,4.254199 -8.9003,6.636624 -3.70209,-15.589607 -17.74352,-27.251528 -34.4389,-27.251528 -16.72298,0 -30.78728,11.699944 -34.46091,27.328592 -2.82825,-2.389493 -5.79934,-4.614614 -8.90029,-6.658582 6.11739,-18.072567 23.18869,-31.035137 43.3612,-31.035251 z m -94.466045,6.019729 c 2.730859,0 4.852195,2.137852 4.852195,4.868712 0,2.604662 -1.929713,4.651843 -4.47772,4.835679 -0.125102,-5.29e-4 -0.249071,-0.0038 -0.374551,-0.0038 -0.125102,0 -0.249449,0.0038 -0.374551,0.0038 -2.549254,-0.184063 -4.494199,-2.231017 -4.494199,-4.835679 0,-2.73086 2.137852,-4.868712 4.868712,-4.868712 z m 188.827505,0 c 2.73082,0 4.85215,2.137852 4.85215,4.868712 0,2.604662 -1.92975,4.651843 -4.47764,4.835679 -0.1251,-5.29e-4 -0.24907,-0.0038 -0.37455,-0.0038 -0.12548,0 -0.24945,0.0038 -0.37455,0.0038 -2.54733,-0.185575 -4.4942,-2.232378 -4.4942,-4.835679 0,-2.73086 2.13785,-4.868712 4.86871,-4.868712 z m -94.36146,12.882218 c 14.55261,0 26.33011,11.435981 26.86601,25.852684 -2.7394,2.88306 -5.29875,5.93983 -7.65555,9.1536 -1.46441,-0.31105 -2.94455,-0.58575 -4.43361,-0.8262 1.10189,-2.20842 1.72944,-4.68892 1.72944,-7.30851 0,-9.0669 -7.43936,-16.506296 -16.50629,-16.506296 -9.06694,0 -16.50622,7.439396 -16.50622,16.506296 0,2.61736 0.61837,5.1016 1.71836,7.30851 -1.52013,0.24567 -3.02733,0.52906 -4.52168,0.84824 -2.33064,-3.18093 -4.85635,-6.20807 -7.56192,-9.06554 0.47958,-14.46875 12.28165,-25.962784 26.87146,-25.962784 z m -94.466045,5.452573 c 26.848745,0 50.723565,12.494778 66.201185,31.971551 -3.85391,1.24226 -7.59927,2.72659 -11.21348,4.44461 -13.40708,-15.31411 -33.07363,-25.009963 -54.987743,-25.009963 -21.915855,0 -41.587049,9.698953 -54.99874,25.015413 -3.609903,-1.7175 -7.347818,-3.20727 -11.196851,-4.45006 C 43.752,99.063836 67.623572,86.568189 94.471635,86.568189 Z m 188.827505,0 c 26.85944,0 50.74605,12.503546 66.22318,31.993471 -3.8499,1.24687 -7.58676,2.74496 -11.19693,4.46672 -13.40791,-15.33887 -33.09176,-25.053993 -55.02625,-25.053993 -21.89496,0 -41.54945,9.680393 -54.96019,24.971373 -3.61474,-1.71386 -7.35954,-3.19521 -11.21344,-4.43365 15.47663,-19.459915 39.33834,-31.943921 66.17363,-31.943921 z m -94.36146,13.427452 c 4.45901,0 7.99154,3.532539 7.99154,7.991549 0,2.56032 -1.1712,4.80521 -3.0071,6.25659 -1.65143,-0.0884 -3.31129,-0.13228 -4.98444,-0.13228 -1.67169,0 -3.3343,0.0495 -4.98437,0.13757 -1.83738,-1.45138 -3.00711,-3.70061 -3.00711,-6.26211 0,-4.45901 3.53246,-7.991546 7.99148,-7.991546 z m -94.466045,6.598149 c 18.669805,0 35.461535,7.90299 47.227575,20.54872 -3.54478,2.12262 -6.93524,4.47939 -10.15052,7.04429 -9.4865,-9.53345 -22.60101,-15.45438 -37.077055,-15.45438 -14.478652,0 -27.596939,5.92339 -37.088089,15.45982 -3.213996,-2.56501 -6.601852,-4.92083 -10.144932,-7.04421 11.770469,-12.64804 28.561361,-20.55424 47.233021,-20.55424 z m 188.827505,0 c 18.69222,0 35.50352,7.92038 47.27153,20.59283 -3.54297,2.12731 -6.93173,4.48611 -10.14493,7.05517 -9.49058,-9.56413 -22.62406,-15.50937 -37.1266,-15.50937 -14.44797,0 -27.54119,5.89837 -37.02754,15.39927 -3.21816,-2.56256 -6.61399,-4.91335 -10.16149,-7.03321 11.76824,-12.6198 28.54114,-20.50469 47.18903,-20.50469 z M 94.471635,127.34627 c 11.942815,0 22.745615,4.76224 30.627705,12.4913 -2.64949,2.54819 -5.1436,5.25422 -7.47379,8.10164 -5.93836,-5.94395 -14.12239,-9.64384 -23.153915,-9.64384 -9.033525,0 -17.222249,3.70307 -23.164914,9.64929 -2.330683,-2.84746 -4.824075,-5.55285 -7.473789,-8.10165 7.886476,-7.73193 18.693203,-12.49674 30.638703,-12.49674 z m 188.827505,0 c 11.97373,0 22.80098,4.7873 30.68825,12.55185 -2.64752,2.55106 -5.13993,5.2577 -7.46831,8.1072 -5.94353,-5.98277 -14.15486,-9.70995 -23.21994,-9.70995 -8.99774,0 -17.15641,3.67279 -23.09329,9.57766 -2.33122,-2.84296 -4.82964,-5.54653 -7.47931,-8.09057 7.88096,-7.69598 18.65847,-12.43619 30.5726,-12.43619 z M 94.471635,146.91481 c 7.159595,0 13.556295,3.0864 17.971195,7.99699 -2.18963,3.25754 -4.18178,6.65975 -5.9481,10.19452 -2.2227,-4.41619 -6.783952,-7.49031 -12.023095,-7.49031 -5.239937,0 -9.812448,3.07306 -12.03961,7.49031 -1.766853,-3.53178 -3.7584,-6.93324 -5.948145,-10.189 4.419477,-4.91464 10.824832,-8.00251 17.987755,-8.00251 z m 188.827505,0 c 7.19905,0 13.62565,3.12178 18.04286,8.07957 -2.19462,3.27005 -4.19086,6.68546 -5.95926,10.23311 -2.19942,-4.48139 -6.79654,-7.61148 -12.0836,-7.61148 -5.19202,0 -9.72979,3.01701 -11.97903,7.36914 -1.76481,-3.51825 -3.74702,-6.90766 -5.93166,-10.15053 4.41683,-4.86561 10.78851,-7.91981 17.91069,-7.91981 z m -188.827505,19.3206 c 2.730859,0 4.852195,2.13786 4.852195,4.86872 0,2.60466 -1.929713,4.65169 -4.47772,4.83564 -0.125102,-5.3e-4 -0.249071,-0.004 -0.374551,-0.004 -0.125102,0 -0.249449,0.004 -0.374551,0.004 -2.549254,-0.18407 -4.494199,-2.23098 -4.494199,-4.83564 0,-2.73086 2.137852,-4.86872 4.868712,-4.86872 z m 188.827505,0 c 2.73082,0 4.85215,2.13786 4.85215,4.86872 0,2.60466 -1.92975,4.65169 -4.47764,4.83564 -0.1251,-5.3e-4 -0.24907,-0.004 -0.37455,-0.004 -0.12548,0 -0.24945,0.004 -0.37455,0.004 -2.54733,-0.18558 -4.4942,-2.23238 -4.4942,-4.83564 0,-2.73086 2.13785,-4.86872 4.86871,-4.86872 z M 0,170.77916 v 8.53671 c 11.257739,0 20.828598,6.85958 24.8448,16.6329 h 8.999357 C 29.431181,181.41929 15.93978,170.77916 0,170.77916 Z m 377.87531,0 c -15.93978,0 -29.43639,10.64001 -33.84963,25.16961 h 9.00495 c 4.01563,-9.77484 13.58577,-16.6329 24.84468,-16.6329 z M 0,189.68111 v 6.26766 H 12.904328 C 9.871748,192.14105 5.208189,189.68111 0,189.68111 Z m 377.87531,0 c -5.20811,0 -9.87163,2.45994 -12.90421,6.26766 h 12.90421 z" />
    </pattern>
    <clipPath
       clipPathUnits="userSpaceOnUse"
       id="clipPath33">
      <rect
         style="fill:#000000;stroke:none;stroke-width:0.999995;stroke-linecap:butt;stroke-linejoin:bevel;paint-order:stroke markers fill;stop-color:#000000"
         id="rect33"
         width="46.19186"
         height="80.006783"
         x="74.999985"
         y="399.99661" />
    </clipPath>
    <linearGradient
       id="linearGradient1"
       inkscape:collect="always">
      <stop
         style="stop-color:#110000;stop-opacity:1;"
         offset="0"
         id="stop1" />
      <stop
         style="stop-color:#ad0000;stop-opacity:1;"
         offset="0.29967478"
         id="stop2" />
    </linearGradient>
    <linearGradient
       id="linearGradient13"
       inkscape:collect="always">
      <stop
         style="stop-color:#000000;stop-opacity:1;"
         offset="0"
         id="stop13" />
      <stop
         style="stop-color:#000030;stop-opacity:0.8493976;"
         offset="1"
         id="stop14" />
    </linearGradient>
    <linearGradient
       inkscape:collect="always"
       xlink:href="#linearGradient13"
       id="linearGradient14"
       x1="13.229167"
       y1="39.226355"
       x2="60.605406"
       y2="39.226355"
       gradientUnits="userSpaceOnUse"
       gradientTransform="matrix(1.6833001,0,0,1.6833001,-22.267604,-13.362243)" />
    <radialGradient
       inkscape:collect="always"
       xlink:href="#linearGradient1"
       id="radialGradient2"
       cx="74.651248"
       cy="72.666871"
       fx="74.651248"
       fy="72.666871"
       r="57.641323"
       gradientTransform="matrix(1,0,0,0.80488669,0,14.178274)"
       gradientUnits="userSpaceOnUse" />
  </defs>
  <g
     inkscape:label="Background"
     inkscape:groupmode="layer"
     id="layer1">
    <circle
       id="path14"
       style="fill:#000000;stroke:#000000;stroke-width:0.264583"
       cx="34.156826"
       cy="39.636528"
       r="0.024329711" />
    <path
       id="path15"
       style="fill:url(#radialGradient2);fill-opacity:1;stroke:#000000;stroke-width:0.309115"
       d="m 29.64494,26.489822 -12.415533,12.313879 3.103883,3.078471 v 61.569398 l -3.103883,3.07847 12.415533,12.31388 3.103884,-3.07847 h 83.804856 l 3.10388,3.07847 12.41553,-12.31388 -3.10388,-3.07847 V 41.882172 l 3.10388,-3.078471 -12.41553,-12.313879 -3.10388,3.078469 H 32.748824 Z m 6.207767,18.470819 H 113.44979 V 100.3731 H 35.852707 Z" />
    <rect
       style="fill:url(#pattern11);fill-opacity:1;stroke:#000000;stroke-width:0.257489"
       id="rect1"
       width="77.918129"
       height="55.39394"
       x="35.852707"
       y="44.97916" />
  </g>
  <g
     inkscape:groupmode="layer"
     id="layer2"
     inkscape:label="Slayer"
     style="display:inline">
    <text
       xml:space="preserve"
       style="font-size:148.458px;fill:url(#linearGradient14);fill-opacity:1;stroke:#000000;stroke-width:0.445373"
       x="-4.7055178"
       y="102.14129"
       id="text5"
       transform="scale(0.99529117,1.0047311)"><tspan
         sodipodi:role="line"
         id="tspan5"
         style="font-style:normal;font-variant:normal;font-weight:normal;font-stretch:normal;font-size:148.458px;font-family:'Bauhaus 93';-inkscape-font-specification:'Bauhaus 93, ';fill:url(#linearGradient14);fill-opacity:1;stroke-width:0.445373"
         x="-4.7055178"
         y="102.14129">S</tspan></text>
  </g>
</svg>
